<svg version="1.0" xmlns="http://www.w3.org/2000/svg" width="400" height="398.667" viewBox="0 0 300 299"><g fill="#DA224C"><path d="M170 .8c0 .5 1.3 2.1 2.9 3.6 5.3 5.1 5.8 11.3 1.7 20.8-2 4.6-2 9.8-.2 14.3 1.8 4.2 3.8 4.7 3 .7-1.2-6.1 1.3-11.3 9.2-18.7 4.8-4.6 7.4-7.8 7.4-9.2 0-2.7-5.2-8.8-9.1-10.9C182-.1 170-.6 170 .8z"/><path d="M200 7c0 4.8-3.8 10.7-9.2 14.1-8.8 5.7-12.4 12.1-11.6 20.9l.5 4.7-8.3-3.3c-23.8-9.3-52.6-11.7-78.7-6.3C77 40.3 65.8 46.4 53 59 41.5 70.3 33.4 75 21.1 77.6c-4 .8-8.5 2.1-10 2.9-9.9 5.1-14.5 19.4-8.5 26.4 1.4 1.7 3.9 3.9 5.5 4.8 1.6 1 3.4 3.2 4 5 1.5 4.6 5.4 9 10 11.4 3.6 1.8 3.9 2.2 3.9 6.4 0 2.4.4 4.6.9 5 .5.3 2.2-1.1 3.8-3l2.9-3.5-.4 3.5c-.2 1.9-.1 4.6.2 6 .9 3.5 3.2 2.1 7.7-4.4l3.4-4.9 8.5-1.3c26.3-3.7 53.1 4.8 72.4 23 13.4 12.7 21.9 27.6 26.1 45.4l1.4 6-2.7-2.6c-2.9-2.7-7.1-4.7-10.2-4.7-1.3 0-2.9 1.9-5 5.9-1.7 3.2-4.5 7.1-6.1 8.7l-2.9 2.8v-7.2c0-4-.4-7.2-.9-7.2s-1.7 2.1-2.5 4.7c-.9 2.7-3 7-4.7 9.7-3 4.7-3.2 4.8-7 4.3-5.8-.8-12.3-5-14.4-9.3-1.6-3.3-1.6-3.9-.1-7.8 3.6-9.4 1.1-13.1-8.8-13.1-5.2 0-6.9.5-10.3 2.8-8 5.5-11.1 16.1-7.8 27.3 1.9 6.7 5.4 13 9 16.4 3 2.8 2.6 3.6-2.5 4.5-2.2.4-4 1.2-4 1.8 0 1.6 9.6 5.9 19.5 8.8 10.2 2.9 26.6 3.2 36.5.5 25.4-6.9 46.3-27.3 53-51.8l1.7-6.2.6 6.4c1.4 13.7-2.7 31.3-10.3 44.2-4.1 6.8-13.5 17.2-20 22-1.9 1.4-3.3 2.8-3 3.2.9.8 18-2.9 27.1-5.9 4.4-1.5 8.2-2.5 8.5-2.3.2.3-3.3 4.3-7.8 9-9.4 9.6-19.8 17.7-30.8 23.8l-7.5 4.2 8-.6c16.7-1.2 38.7-9.5 55.2-20.8 9.9-6.7 23.4-20.2 30.1-29.7 2.9-4.1 5.2-6.9 5.2-6.3 0 .5-1.4 5.2-3 10.2-3.2 9.9-9.3 22.7-14.1 29.7-1.7 2.4-2.5 4.3-1.9 4.3 2 0 13.2-9.1 20.8-16.8 14.9-15.3 27.2-38.1 31.8-59.2l.8-3.5.7 4.5c.4 2.5.8 10 .8 16.7.1 6.8.4 12.3.9 12.3 1.2 0 8.2-11.5 12.8-20.9 5.1-10.4 8.9-22.3 10.9-33.8 2-11.2 1.9-32.5-.1-44.4-4.3-25.6-18-55.4-34.8-75.6-2.8-3.4-5.3-6.2-5.6-6.2-.3-.1-1.5 4-2.7 9-1.3 5.4-3.5 11.3-5.5 14.6-10.6 17.6-30.7 27.7-51.2 25.7l-7.1-.7 5.7-1.3c13.3-3.1 28.4-14.5 34.6-26.2 9.3-17.5 8.6-37.9-1.6-53.8-5.9-9-19.6-20.1-27.4-21.9-2.6-.7-2.8-.5-2.8 2.5z"/></g></svg>