<?xml version="1.0" standalone="no"?>
<!DOCTYPE svg PUBLIC "-//W3C//DTD SVG 20010904//EN"
 "http://www.w3.org/TR/2001/REC-SVG-20010904/DTD/svg10.dtd">
<svg version="1.0" xmlns="http://www.w3.org/2000/svg"
 width="300.000000pt" height="299.000000pt" viewBox="0 0 300.000000 299.000000"
 preserveAspectRatio="xMidYMid meet">
<metadata>
Created by potrace 1.16, written by Peter Selinger 2001-2019
</metadata>
<g transform="translate(0.000000,299.000000) scale(0.100000,-0.100000)"
fill="#DA224C" stroke="none">
<path d="M1700 2982 c0 -5 13 -21 29 -36 53 -51 58 -113 17 -208 -20 -46 -20
-98 -2 -143 18 -42 38 -47 30 -7 -12 61 13 113 92 187 48 46 74 78 74 92 0 27
-52 88 -91 109 -29 15 -149 20 -149 6z"/>
<path d="M2000 2920 c0 -48 -38 -107 -92 -141 -88 -57 -124 -121 -116 -209 l5
-47 -83 33 c-238 93 -526 117 -787 63 -157 -32 -269 -93 -397 -219 -115 -113
-196 -160 -319 -186 -40 -8 -85 -21 -100 -29 -99 -51 -145 -194 -85 -264 14
-17 39 -39 55 -48 16 -10 34 -32 40 -50 15 -46 54 -90 100 -114 36 -18 39 -22
39 -64 0 -24 4 -46 9 -50 5 -3 22 11 38 30 l29 35 -4 -35 c-2 -19 -1 -46 2
-60 9 -35 32 -21 77 44 l34 49 85 13 c263 37 531 -48 724 -230 134 -127 219
-276 261 -454 l14 -60 -27 26 c-29 27 -71 47 -102 47 -13 0 -29 -19 -50 -59
-17 -32 -45 -71 -61 -87 l-29 -28 0 72 c0 40 -4 72 -9 72 -5 0 -17 -21 -25
-47 -9 -27 -30 -70 -47 -97 -30 -47 -32 -48 -70 -43 -58 8 -123 50 -144 93
-16 33 -16 39 -1 78 36 94 11 131 -88 131 -52 0 -69 -5 -103 -28 -80 -55 -111
-161 -78 -273 19 -67 54 -130 90 -164 30 -28 26 -36 -25 -45 -22 -4 -40 -12
-40 -18 0 -16 96 -59 195 -88 102 -29 266 -32 365 -5 254 69 463 273 530 518
l17 62 6 -64 c14 -137 -27 -313 -103 -442 -41 -68 -135 -172 -200 -220 -19
-14 -33 -28 -30 -32 9 -8 180 29 271 59 44 15 82 25 85 23 2 -3 -33 -43 -78
-90 -94 -96 -198 -177 -308 -238 l-75 -42 80 6 c167 12 387 95 552 208 99 67
234 202 301 297 29 41 52 69 52 63 0 -5 -14 -52 -30 -102 -32 -99 -93 -227
-141 -297 -17 -24 -25 -43 -19 -43 20 0 132 91 208 168 149 153 272 381 318
592 l8 35 7 -45 c4 -25 8 -100 8 -167 1 -68 4 -123 9 -123 12 0 82 115 128
209 51 104 89 223 109 338 20 112 19 325 -1 444 -43 256 -180 554 -348 756
-28 34 -53 62 -56 62 -3 1 -15 -40 -27 -90 -13 -54 -35 -113 -55 -146 -106
-176 -307 -277 -512 -257 l-71 7 57 13 c133 31 284 145 346 262 93 175 86 379
-16 538 -59 90 -196 201 -274 219 -26 7 -28 5 -28 -25z"/>
</g>
</svg>
